<?xml version="1.0" encoding="iso-8859-1"?>
<!-- Uploaded to: SVG Repo, www.svgrepo.com, Generator: SVG Repo Mixer Tools -->
<svg height="800px" width="800px" version="1.1" id="Layer_1" xmlns="http://www.w3.org/2000/svg" xmlns:xlink="http://www.w3.org/1999/xlink" 
	 viewBox="0 0 512 512" xml:space="preserve">
<path style="fill:#FFD92D;" d="M28.379,509.118L28.379,509.118c-13.629-6.769-19.19-23.306-12.421-36.934L248.664,15.303
	c6.769-13.629,23.306-19.19,36.934-12.421l0,0c13.629,6.769,19.19,23.306,12.421,36.934L65.312,496.699
	C58.544,510.327,42.007,515.887,28.379,509.118z"/>
<path style="fill:#FFA81E;" d="M285.598,2.884c-9.169-4.554-19.65-3.521-27.591,1.789c10.895,7.706,14.859,22.408,8.737,34.734
	L34.038,496.286c-2.215,4.459-5.48,8.049-9.343,10.631c1.152,0.815,2.38,1.553,3.684,2.2c13.629,6.769,30.165,1.209,36.934-12.421
	L298.019,39.817C304.788,26.189,299.227,9.652,285.598,2.884z"/>
<path style="fill:#E1E1E4;" d="M391.65,139.347c-32.062-17.83-66.902-28.702-101.199-29.433l0.12,0.781L198.9,65.041l-35.819,71.924
	l91.392,45.516l-0.095-0.052c33.489,1.085,72.31,16.922,103.606,34.328c97.341,54.132,138.928,151.091,97.784,251.667
	c5.065-6.997,9.818-14.326,14.118-22.065C528.322,341.284,496.724,197.782,391.65,139.347z"/>
</svg>