<?xml version="1.0" encoding="UTF-8"?>
<svg version="1.1" xmlns="http://www.w3.org/2000/svg" width="400" height="400">
<path d="M0 0 C4.29 0 8.58 0 13 0 C13.17612537 9.20817137 13.34275522 18.41648789 13.5 27.625 C13.51187725 28.32019367 13.5237545 29.01538734 13.53599167 29.73164749 C13.92114642 52.46777689 14.0910222 75.19817863 14.0625 97.9375 C14.06164398 98.62495552 14.06078796 99.31241104 14.05990601 100.02069855 C14.04874679 108.34715822 14.02903347 116.67358302 14 125 C11.69 124.67 9.38 124.34 7 124 C7 123.01 7 122.02 7 121 C6.01 121 5.02 121 4 121 C3.67 120.34 3.34 119.68 3 119 C2.01 118.67 1.02 118.34 0 118 C-0.33 117.34 -0.66 116.68 -1 116 C-1.99 115.67 -2.98 115.34 -4 115 C-4.33 114.34 -4.66 113.68 -5 113 C-5.99 112.67 -6.98 112.34 -8 112 C-8 111.01 -8 110.02 -8 109 C-11.74702285 107.96633852 -14.22799206 107.74266402 -18 109 C-18 110.32 -18 111.64 -18 113 C-18.66 113 -19.32 113 -20 113 C-20.66 114.65 -21.32 116.3 -22 118 C-22.66 118 -23.32 118 -24 118 C-24 119.32 -24 120.64 -24 122 C-24.66 122 -25.32 122 -26 122 C-26.66 123.98 -27.32 125.96 -28 128 C-28.66 128 -29.32 128 -30 128 C-30.33 129.98 -30.66 131.96 -31 134 C-31.99 134 -32.98 134 -34 134 C-33.67 134.99 -33.34 135.98 -33 137 C-33.99 137 -34.98 137 -36 137 C-36.33 138.98 -36.66 140.96 -37 143 C-37.99 143 -38.98 143 -40 143 C-40 143.99 -40 144.98 -40 146 C-40.66 146.33 -41.32 146.66 -42 147 C-42.65555119 149.52733235 -42.65555119 149.52733235 -43 152 C-43.99 152 -44.98 152 -46 152 C-46.12375 152.556875 -46.2475 153.11375 -46.375 153.6875 C-47.05976855 156.22114364 -47.99133763 158.57921032 -49 161 C-49.99 161 -50.98 161 -52 161 C-52 162.32 -52 163.64 -52 165 C-52.66 165 -53.32 165 -54 165 C-54.33 166.98 -54.66 168.96 -55 171 C-55.99 171 -56.98 171 -58 171 C-58 172.98 -58 174.96 -58 177 C-58.99 177 -59.98 177 -61 177 C-61 177.99 -61 178.98 -61 180 C-61.99 180 -62.98 180 -64 180 C-63.938125 180.94875 -63.87625 181.8975 -63.8125 182.875 C-63.874375 183.90625 -63.93625 184.9375 -64 186 C-64.99 186.66 -65.98 187.32 -67 188 C-67.33 188.66 -67.66 189.32 -68 190 C-68.66 190.99 -69.32 191.98 -70 193 C-70.33 193.66 -70.66 194.32 -71 195 C-71.66 195 -72.32 195 -73 195 C-73 196.32 -73 197.64 -73 199 C-73.99 199 -74.98 199 -76 199 C-76.185625 200.2065625 -76.185625 200.2065625 -76.375 201.4375 C-76.58125 202.283125 -76.7875 203.12875 -77 204 C-77.66 204.33 -78.32 204.66 -79 205 C-79.72693904 206.97888961 -80.39816251 208.97954558 -81 211 C-81.66 211 -82.32 211 -83 211 C-83 211.99 -83 212.98 -83 214 C-83.99 214 -84.98 214 -86 214 C-85.67 214.99 -85.34 215.98 -85 217 C-85.33 217.99 -85.66 218.98 -86 220 C-86.99 220 -87.98 220 -89 220 C-89 220.99 -89 221.98 -89 223 C-89.66 223.66 -90.32 224.32 -91 225 C-91.6425235 227.06874034 -91.6425235 227.06874034 -92 229 C-92.99 229 -93.98 229 -95 229 C-95 230.32 -95 231.64 -95 233 C-95.66 233 -96.32 233 -97 233 C-97.33 234.65 -97.66 236.3 -98 238 C-98.99 238 -99.98 238 -101 238 C-101 239.65 -101 241.3 -101 243 C-101.99 243.33 -102.98 243.66 -104 244 C-104.61067144 245.85744207 -104.61067144 245.85744207 -105 248 C-105.63474075 249.34882408 -106.29848848 250.6846659 -107 252 C-107.33 252.66 -107.66 253.32 -108 254 C-108.99 254 -109.98 254 -111 254 C-110.67 255.32 -110.34 256.64 -110 258 C-110.99 257.67 -111.98 257.34 -113 257 C-113.33 258.98 -113.66 260.96 -114 263 C-114.99 263 -115.98 263 -117 263 C-116.67 264.32 -116.34 265.64 -116 267 C-116.66 267 -117.32 267 -118 267 C-118 267.66 -118 268.32 -118 269 C-118.66 269 -119.32 269 -120 269 C-120 269.99 -120 270.98 -120 272 C-120.66 272.33 -121.32 272.66 -122 273 C-122.33 273.99 -122.66 274.98 -123 276 C-123.66 276 -124.32 276 -125 276 C-125.33 277.65 -125.66 279.3 -126 281 C-126.99 281 -127.98 281 -129 281 C-129 282.32 -129 283.64 -129 285 C-129.66 285 -130.32 285 -131 285 C-131 285.66 -131 286.32 -131 287 C-136.20154327 289.57429164 -140.43064256 290.43289705 -146.25854492 290.37231445 C-147.05293472 290.37596512 -147.84732452 290.37961578 -148.66578674 290.38337708 C-151.27090353 290.39143145 -153.87538842 290.37791909 -156.48046875 290.36328125 C-158.29934183 290.36276218 -160.11821548 290.36328169 -161.93708801 290.36479187 C-165.73898755 290.36470239 -169.54067398 290.35431879 -173.3425293 290.33618164 C-178.21502413 290.3134468 -183.08720921 290.3129617 -187.95974255 290.31969929 C-191.71123508 290.32303982 -195.46265699 290.31640838 -199.21413612 290.30657005 C-201.0110773 290.30272287 -202.80802634 290.30156784 -204.60497093 290.3031559 C-207.11334611 290.30352671 -209.62132329 290.29090367 -212.12963867 290.2746582 C-212.87102081 290.27713562 -213.61240295 290.27961304 -214.37625122 290.28216553 C-218.07422898 290.24393729 -220.85781203 290.04777123 -224 288 C-223.67 287.01 -223.34 286.02 -223 285 C-222.34 285 -221.68 285 -221 285 C-221 283.68 -221 282.36 -221 281 C-220.34 281 -219.68 281 -219 281 C-218.67 279.02 -218.34 277.04 -218 275 C-217.01 275 -216.02 275 -215 275 C-214.938125 274.113125 -214.87625 273.22625 -214.8125 272.3125 C-213.81171937 268.23239435 -211.99809058 266.84818605 -209 264 C-208.13880866 261.82653432 -208.13880866 261.82653432 -208 260 C-207.01 260 -206.02 260 -205 260 C-205 259.01 -205 258.02 -205 257 C-204.34 256.67 -203.68 256.34 -203 256 C-202.34444881 253.47266765 -202.34444881 253.47266765 -202 251 C-201.01 251 -200.02 251 -199 251 C-198.87625 250.46375 -198.7525 249.9275 -198.625 249.375 C-197.87793984 246.5361714 -196.94696636 243.77776798 -196 241 C-195.01 241 -194.02 241 -193 241 C-193 240.01 -193 239.02 -193 238 C-192.01 238 -191.02 238 -190 238 C-190 236.02 -190 234.04 -190 232 C-189.01 232 -188.02 232 -187 232 C-187 231.01 -187 230.02 -187 229 C-186.01 229 -185.02 229 -184 229 C-184 227.02 -184 225.04 -184 223 C-183.01 223 -182.02 223 -181 223 C-181 222.01 -181 221.02 -181 220 C-180.01 220 -179.02 220 -178 220 C-178 218.02 -178 216.04 -178 214 C-177.01 213.67 -176.02 213.34 -175 213 C-174.67 212.34 -174.34 211.68 -174 211 C-173.34 211 -172.68 211 -172 211 C-171.505 208.03 -171.505 208.03 -171 205 C-170.01 204.67 -169.02 204.34 -168 204 C-168.33 202.68 -168.66 201.36 -169 200 C-168.01 200.33 -167.02 200.66 -166 201 C-165.505 198.03 -165.505 198.03 -165 195 C-164.01 195 -163.02 195 -162 195 C-162 194.01 -162 193.02 -162 192 C-161.34 192 -160.68 192 -160 192 C-159.505 189.03 -159.505 189.03 -159 186 C-158.01 186 -157.02 186 -156 186 C-156 185.01 -156 184.02 -156 183 C-155.34 183 -154.68 183 -154 183 C-153.505 180.03 -153.505 180.03 -153 177 C-152.01 177 -151.02 177 -150 177 C-150 175.68 -150 174.36 -150 173 C-149.34 173 -148.68 173 -148 173 C-147.67 171.35 -147.34 169.7 -147 168 C-146.01 168 -145.02 168 -144 168 C-144 166.68 -144 165.36 -144 164 C-143.34 164 -142.68 164 -142 164 C-141.505 161.03 -141.505 161.03 -141 158 C-140.01 158 -139.02 158 -138 158 C-137.87625 157.05125 -137.7525 156.1025 -137.625 155.125 C-137 152 -137 152 -135 150 C-134.01 149.67 -133.02 149.34 -132 149 C-132 147.02 -132 145.04 -132 143 C-131.01 142.67 -130.02 142.34 -129 142 C-128.67 141.34 -128.34 140.68 -128 140 C-127.34 140 -126.68 140 -126 140 C-125.505 137.03 -125.505 137.03 -125 134 C-124.01 134 -123.02 134 -122 134 C-122.33 132.68 -122.66 131.36 -123 130 C-122.01 130 -121.02 130 -120 130 C-119.814375 128.7934375 -119.814375 128.7934375 -119.625 127.5625 C-119.41875 126.716875 -119.2125 125.87125 -119 125 C-118.34 124.67 -117.68 124.34 -117 124 C-116.27306096 122.02111039 -115.60183749 120.02045442 -115 118 C-114.34 118 -113.68 118 -113 118 C-113 117.01 -113 116.02 -113 115 C-112.01 115 -111.02 115 -110 115 C-110.33 114.01 -110.66 113.02 -111 112 C-110.505 110.515 -110.505 110.515 -110 109 C-109.01 109 -108.02 109 -107 109 C-107 99.76 -107 90.52 -107 81 C-107.99 81 -108.98 81 -110 81 C-110 78.03 -110 75.06 -110 72 C-110.99 72 -111.98 72 -113 72 C-113.12375 71.195625 -113.2475 70.39125 -113.375 69.5625 C-113.684375 68.2940625 -113.684375 68.2940625 -114 67 C-114.66 66.67 -115.32 66.34 -116 66 C-116 65.01 -116 64.02 -116 63 C-116.99 63 -117.98 63 -119 63 C-119 62.01 -119 61.02 -119 60 C-120.485 59.505 -120.485 59.505 -122 59 C-123.02104551 58.02149805 -124.0206121 57.02019573 -125 56 C-126.485 55.01 -126.485 55.01 -128 54 C-128 53.01 -128 52.02 -128 51 C-128.66 50.67 -129.32 50.34 -130 50 C-131.625 48.75 -131.625 48.75 -133 47 C-133 45.35 -133 43.7 -133 42 C-127.06 41.505 -127.06 41.505 -121 41 C-121.33 40.01 -121.66 39.02 -122 38 C-118.7 38 -115.4 38 -112 38 C-112 37.01 -112 36.02 -112 35 C-107.05 34.505 -107.05 34.505 -102 34 C-102 33.34 -102 32.68 -102 32 C-98.7 32 -95.4 32 -92 32 C-92.33 31.01 -92.66 30.02 -93 29 C-89.7 28.67 -86.4 28.34 -83 28 C-83 27.34 -83 26.68 -83 26 C-80.03 25.67 -77.06 25.34 -74 25 C-74 24.34 -74 23.68 -74 23 C-73.04287109 22.92652344 -73.04287109 22.92652344 -72.06640625 22.8515625 C-71.24011719 22.77679688 -70.41382813 22.70203125 -69.5625 22.625 C-68.73878906 22.55539063 -67.91507813 22.48578125 -67.06640625 22.4140625 C-66.38449219 22.27742188 -65.70257813 22.14078125 -65 22 C-64.67 21.34 -64.34 20.68 -64 20 C-61.67711188 19.60689586 -59.38154824 19.49250305 -57.03125 19.34375 C-56.3609375 19.2303125 -55.690625 19.116875 -55 19 C-54.67 18.34 -54.34 17.68 -54 17 C-51.93734178 16.6088062 -49.90556733 16.49325481 -47.8125 16.34375 C-47.214375 16.2303125 -46.61625 16.116875 -46 16 C-45.67 15.34 -45.34 14.68 -45 14 C-42.93359375 13.5859375 -42.93359375 13.5859375 -40.4375 13.375 C-39.19806641 13.26285156 -39.19806641 13.26285156 -37.93359375 13.1484375 C-36.97646484 13.07496094 -36.97646484 13.07496094 -36 13 C-36 12.34 -36 11.68 -36 11 C-35.04287109 10.92652344 -35.04287109 10.92652344 -34.06640625 10.8515625 C-32.82697266 10.73941406 -32.82697266 10.73941406 -31.5625 10.625 C-30.32693359 10.52058594 -30.32693359 10.52058594 -29.06640625 10.4140625 C-28.38449219 10.27742188 -27.70257813 10.14078125 -27 10 C-26.67 9.34 -26.34 8.68 -26 8 C-23.71484375 7.5859375 -23.71484375 7.5859375 -20.9375 7.375 C-20.01839844 7.30023437 -19.09929687 7.22546875 -18.15234375 7.1484375 C-17.08693359 7.07496094 -17.08693359 7.07496094 -16 7 C-16 6.34 -16 5.68 -16 5 C-12.92382812 4.70703125 -12.92382812 4.70703125 -9.84765625 4.4140625 C-9.23792969 4.27742188 -8.62820313 4.14078125 -8 4 C-7.67 3.34 -7.34 2.68 -7 2 C-4.69 2 -2.38 2 0 2 C0 1.34 0 0.68 0 0 Z " fill="#DE203A" transform="translate(369,15)"/>
<path d="M0 0 C10.54381312 -0.02312343 21.08762025 -0.04091509 31.63145351 -0.05181217 C36.52685374 -0.057041 41.42223668 -0.06413864 46.31762695 -0.07543945 C51.03787978 -0.08626834 55.75811592 -0.09227684 60.4783802 -0.09487724 C62.28338954 -0.09673149 64.08839792 -0.10035209 65.89340019 -0.10573006 C68.41259644 -0.11294052 70.9317229 -0.11399094 73.45092773 -0.11352539 C74.20474228 -0.11712067 74.95855682 -0.12071594 75.73521423 -0.12442017 C80.88594784 -0.11405216 80.88594784 -0.11405216 82 1 C82.07179964 2.51928038 82.08392007 4.04167482 82.0625 5.5625 C82.05347656 6.38878906 82.04445312 7.21507812 82.03515625 8.06640625 C82.01775391 9.02353516 82.01775391 9.02353516 82 10 C81.01 10 80.02 10 79 10 C79.33 10.99 79.66 11.98 80 13 C79.67 13.99 79.34 14.98 79 16 C78.01 16 77.02 16 76 16 C76 17.32 76 18.64 76 20 C75.34 20 74.68 20 74 20 C73.67 21.65 73.34 23.3 73 25 C72.01 25 71.02 25 70 25 C70 26.98 70 28.96 70 31 C69.01 31 68.02 31 67 31 C67 31.99 67 32.98 67 34 C66.01 34 65.02 34 64 34 C64.061875 34.94875 64.12375 35.8975 64.1875 36.875 C64.125625 37.90625 64.06375 38.9375 64 40 C63.01 40.66 62.02 41.32 61 42 C60.67 42.99 60.34 43.98 60 45 C59.34 44.67 58.68 44.34 58 44 C57.67 45.98 57.34 47.96 57 50 C56.01 50 55.02 50 54 50 C54.33 51.32 54.66 52.64 55 54 C54.01 53.67 53.02 53.34 52 53 C51.67 54.98 51.34 56.96 51 59 C50.01 59 49.02 59 48 59 C48 59.99 48 60.98 48 62 C47.34 62 46.68 62 46 62 C45.67 63.98 45.34 65.96 45 68 C44.01 68 43.02 68 42 68 C42 69.32 42 70.64 42 72 C41.34 72 40.68 72 40 72 C39.67 73.65 39.34 75.3 39 77 C38.01 77 37.02 77 36 77 C36 78.32 36 79.64 36 81 C35.34 81 34.68 81 34 81 C33.87625 81.804375 33.7525 82.60875 33.625 83.4375 C33.41875 84.283125 33.2125 85.12875 33 86 C32.01 86.495 32.01 86.495 31 87 C30.67 87.99 30.34 88.98 30 90 C29.34 90 28.68 90 28 90 C27.67 91.98 27.34 93.96 27 96 C26.01 96 25.02 96 24 96 C23.87625 96.556875 23.7525 97.11375 23.625 97.6875 C22.94023145 100.22114364 22.00866237 102.57921032 21 105 C20.01 105 19.02 105 18 105 C18 106.32 18 107.64 18 109 C17.34 109 16.68 109 16 109 C15.34 110.65 14.68 112.3 14 114 C13.34 114 12.68 114 12 114 C12 115.32 12 116.64 12 118 C11.34 118 10.68 118 10 118 C10 118.66 10 119.32 10 120 C9.34 120 8.68 120 8 120 C8 120.99 8 121.98 8 123 C7.01 123.495 7.01 123.495 6 124 C5.505 125.485 5.505 125.485 5 127 C4.34 127 3.68 127 3 127 C2.505 129.97 2.505 129.97 2 133 C1.01 133 0.02 133 -1 133 C-1.495 135.97 -1.495 135.97 -2 139 C-2.66 139 -3.32 139 -4 139 C-4 139.99 -4 140.98 -4 142 C-4.99 142 -5.98 142 -7 142 C-7 143.32 -7 144.64 -7 146 C-7.66 146 -8.32 146 -9 146 C-9.33 147.65 -9.66 149.3 -10 151 C-10.99 151 -11.98 151 -13 151 C-13 152.98 -13 154.96 -13 157 C-13.99 157 -14.98 157 -16 157 C-16 157.99 -16 158.98 -16 160 C-16.99 160 -17.98 160 -19 160 C-19 161.65 -19 163.3 -19 165 C-19.99 165.33 -20.98 165.66 -22 166 C-22 167.98 -22 169.96 -22 172 C-22.66 172.33 -23.32 172.66 -24 173 C-24.165 174.155 -24.33 175.31 -24.5 176.5 C-24.665 177.655 -24.83 178.81 -25 180 C-25.66 180.33 -26.32 180.66 -27 181 C-27.31241455 183.71446979 -27.51336592 186.33909361 -27.625 189.0625 C-27.66367188 189.82111328 -27.70234375 190.57972656 -27.7421875 191.36132812 C-27.83673562 193.24047195 -27.91946756 195.12020336 -28 197 C-27.01 197.33 -26.02 197.66 -25 198 C-25 201.96 -25 205.92 -25 210 C-24.01 210 -23.02 210 -22 210 C-22 212.97 -22 215.94 -22 219 C-21.01 219 -20.02 219 -19 219 C-19 220.98 -19 222.96 -19 225 C-18.01 225 -17.02 225 -16 225 C-16 225.99 -16 226.98 -16 228 C-15.34 228 -14.68 228 -14 228 C-14 228.99 -14 229.98 -14 231 C-13.01 231 -12.02 231 -11 231 C-11 231.99 -11 232.98 -11 234 C-10.01 234 -9.02 234 -8 234 C-8 234.99 -8 235.98 -8 237 C-7.01 237 -6.02 237 -5 237 C-5 237.99 -5 238.98 -5 240 C-4.401875 240.12375 -3.80375 240.2475 -3.1875 240.375 C-1 241 -1 241 2 243 C2.33 243.99 2.66 244.98 3 246 C3.66 246.33 4.32 246.66 5 247 C5 248.32 5 249.64 5 251 C-1.93 251 -8.86 251 -16 251 C-16 250.34 -16 249.68 -16 249 C-38.44 249 -60.88 249 -84 249 C-84 248.34 -84 247.68 -84 247 C-85.2065625 246.814375 -85.2065625 246.814375 -86.4375 246.625 C-87.283125 246.41875 -88.12875 246.2125 -89 246 C-89.495 245.01 -89.495 245.01 -90 244 C-90.66 243.835 -91.32 243.67 -92 243.5 C-92.66 243.335 -93.32 243.17 -94 243 C-94.495 242.01 -94.495 242.01 -95 241 C-95.99 240.67 -96.98 240.34 -98 240 C-98.495 239.01 -98.495 239.01 -99 238 C-99.99 237.67 -100.98 237.34 -102 237 C-102 236.01 -102 235.02 -102 234 C-102.8971875 233.8453125 -102.8971875 233.8453125 -103.8125 233.6875 C-106.32857968 232.8967321 -107.23754346 231.91571363 -109 230 C-109.99 229.34 -110.98 228.68 -112 228 C-112 227.01 -112 226.02 -112 225 C-112.66 225 -113.32 225 -114 225 C-114 224.01 -114 223.02 -114 222 C-114.99 222 -115.98 222 -117 222 C-117.103125 221.236875 -117.20625 220.47375 -117.3125 219.6875 C-117.7215099 216.97559048 -117.7215099 216.97559048 -119.51806641 215.76977539 C-121.82430519 213.01558676 -121.38902932 210.5279681 -121.3984375 206.99609375 C-121.40130768 206.31700455 -121.40417786 205.63791534 -121.40713501 204.93824768 C-121.40917372 203.50512862 -121.40365723 202.07198162 -121.39111328 200.63891602 C-121.37502994 198.44159046 -121.39097901 196.24609714 -121.41015625 194.04882812 C-121.40817427 192.65624593 -121.40433152 191.26366488 -121.3984375 189.87109375 C-121.39505371 188.60193115 -121.39166992 187.33276855 -121.38818359 186.02514648 C-121.26008301 185.02684814 -121.13198242 184.0285498 -121 183 C-119.515 182.01 -119.515 182.01 -118 181 C-117.27034634 178.43717258 -117.27034634 178.43717258 -117 176 C-116.01 176 -115.02 176 -114 176 C-114 174.35 -114 172.7 -114 171 C-113.01 170.67 -112.02 170.34 -111 170 C-110.26676204 167.98491642 -110.26676204 167.98491642 -110 166 C-109.34 166 -108.68 166 -108 166 C-108 164.35 -108 162.7 -108 161 C-107.01 160.67 -106.02 160.34 -105 160 C-105 159.01 -105 158.02 -105 157 C-104.01 157 -103.02 157 -102 157 C-102 155.02 -102 153.04 -102 151 C-101.01 151 -100.02 151 -99 151 C-99 150.01 -99 149.02 -99 148 C-98.34 147.67 -97.68 147.34 -97 147 C-96.34444881 144.47266765 -96.34444881 144.47266765 -96 142 C-95.01 142 -94.02 142 -93 142 C-93 140.02 -93 138.04 -93 136 C-92.01 135.67 -91.02 135.34 -90 135 C-89.67 134.34 -89.34 133.68 -89 133 C-88.34 133 -87.68 133 -87 133 C-86.87625 132.030625 -86.7525 131.06125 -86.625 130.0625 C-86.41875 129.051875 -86.2125 128.04125 -86 127 C-85.34 126.67 -84.68 126.34 -84 126 C-83.505 124.515 -83.505 124.515 -83 123 C-82.01 123 -81.02 123 -80 123 C-80.33 122.01 -80.66 121.02 -81 120 C-80.505 118.515 -80.505 118.515 -80 117 C-79.01 117 -78.02 117 -77 117 C-77 116.01 -77 115.02 -77 114 C-76.34 113.34 -75.68 112.68 -75 112 C-74.3574765 109.93125966 -74.3574765 109.93125966 -74 108 C-73.01 108 -72.02 108 -71 108 C-71 107.01 -71 106.02 -71 105 C-70.34 104.67 -69.68 104.34 -69 104 C-68.34444881 101.47266765 -68.34444881 101.47266765 -68 99 C-67.01 99 -66.02 99 -65 99 C-64.87625 98.443125 -64.7525 97.88625 -64.625 97.3125 C-63.94023145 94.77885636 -63.00866237 92.42078968 -62 90 C-61.01 90 -60.02 90 -59 90 C-59 88.68 -59 87.36 -59 86 C-58.01 86 -57.02 86 -56 86 C-56 84.35 -56 82.7 -56 81 C-55.01 80.67 -54.02 80.34 -53 80 C-53 79.01 -53 78.02 -53 77 C-52.34 77 -51.68 77 -51 77 C-50.67 75.02 -50.34 73.04 -50 71 C-49.01 71 -48.02 71 -47 71 C-47 69.68 -47 68.36 -47 67 C-46.34 67 -45.68 67 -45 67 C-45 66.34 -45 65.68 -45 65 C-44.34 65 -43.68 65 -43 65 C-43 64.01 -43 63.02 -43 62 C-42.34 62 -41.68 62 -41 62 C-40.855625 61.38125 -40.71125 60.7625 -40.5625 60.125 C-40 58 -40 58 -39 56 C-38.34 56 -37.68 56 -37 56 C-37 55.01 -37 54.02 -37 53 C-36.34 52.67 -35.68 52.34 -35 52 C-34.67 51.01 -34.34 50.02 -34 49 C-33.34 49 -32.68 49 -32 49 C-31.814375 47.7934375 -31.814375 47.7934375 -31.625 46.5625 C-31.41875 45.716875 -31.2125 44.87125 -31 44 C-30.34 43.67 -29.68 43.34 -29 43 C-28.67 42.01 -28.34 41.02 -28 40 C-27.34 40 -26.68 40 -26 40 C-26.33 39.01 -26.66 38.02 -27 37 C-26.34 37 -25.68 37 -25 37 C-25 36.01 -25 35.02 -25 34 C-24.01 34 -23.02 34 -22 34 C-21.67 32.02 -21.34 30.04 -21 28 C-20.34 28 -19.68 28 -19 28 C-19 27.01 -19 26.02 -19 25 C-18.01 25 -17.02 25 -16 25 C-16 23.68 -16 22.36 -16 21 C-15.34 21 -14.68 21 -14 21 C-13.67 19.35 -13.34 17.7 -13 16 C-12.01 16 -11.02 16 -10 16 C-9.814375 15.1028125 -9.814375 15.1028125 -9.625 14.1875 C-8.82071613 11.37250647 -7.52063979 9.48059058 -5.375 7.5 C-3.66213769 5.97056503 -3.66213769 5.97056503 -4 3 C-2.68 2.34 -1.36 1.68 0 1 C0 0.67 0 0.34 0 0 Z " fill="#FEFEFE" transform="translate(153,135)"/>
<path d="M0 0 C77.55 0 155.1 0 235 0 C235.33 0.66 235.66 1.32 236 2 C236.99 2.33 237.98 2.66 239 3 C239.1875 5.3125 239.1875 5.3125 239 8 C237.5 9.6875 237.5 9.6875 236 11 C236 11.66 236 12.32 236 13 C234.68 13.66 233.36 14.32 232 15 C232 15.99 232 16.98 232 18 C231.34 18 230.68 18 230 18 C229.67 19.98 229.34 21.96 229 24 C228.34 24 227.68 24 227 24 C226.814375 25.4540625 226.814375 25.4540625 226.625 26.9375 C226.41875 27.948125 226.2125 28.95875 226 30 C225.34 30.33 224.68 30.66 224 31 C223.34444881 33.52733235 223.34444881 33.52733235 223 36 C222.01 36 221.02 36 220 36 C220 36.99 220 37.98 220 39 C219.01 39.495 219.01 39.495 218 40 C217.34227572 43.02934491 217.34227572 43.02934491 217 46 C216.01 46 215.02 46 214 46 C214 47.65 214 49.3 214 51 C213.01 51.33 212.02 51.66 211 52 C211 52.99 211 53.98 211 55 C210.01 55 209.02 55 208 55 C208 56.98 208 58.96 208 61 C207.01 61 206.02 61 205 61 C205 64.3 205 67.6 205 71 C204.34 71 203.68 71 203 71 C202.67 71.66 202.34 72.32 202 73 C201.01 73.33 200.02 73.66 199 74 C198.67 74.66 198.34 75.32 198 76 C147.18 76 96.36 76 44 76 C43.67 75.34 43.34 74.68 43 74 C40.44508177 73.60786962 40.44508177 73.60786962 37.5 73.5 C34.46875 73.34375 34.46875 73.34375 32 73 C31.67 72.34 31.34 71.68 31 71 C30.38125 70.855625 29.7625 70.71125 29.125 70.5625 C26.58219801 69.88940535 25.59309333 69.07102132 24 67 C24 66.01 24 65.02 24 64 C22.35 64 20.7 64 19 64 C18.67 63.34 18.34 62.68 18 62 C16.515 61.505 16.515 61.505 15 61 C15 60.01 15 59.02 15 58 C13.515 57.505 13.515 57.505 12 57 C11.67 55.35 11.34 53.7 11 52 C10.01 52 9.02 52 8 52 C8 51.01 8 50.02 8 49 C7.01 49 6.02 49 5 49 C5 47.02 5 45.04 5 43 C4.01 42.67 3.02 42.34 2 42 C2 40.02 2 38.04 2 36 C1.01 36 0.02 36 -1 36 C-1 32.04 -1 28.08 -1 24 C-1.99 24 -2.98 24 -4 24 C-4 17.07 -4 10.14 -4 3 C-3.01 2.67 -2.02 2.34 -1 2 C-0.67 1.34 -0.34 0.68 0 0 Z " fill="#DE203A" transform="translate(141,310)"/>
<path d="M0 0 C48.18 0 96.36 0 146 0 C146 0.66 146 1.32 146 2 C146.63808594 2.04898438 147.27617187 2.09796875 147.93359375 2.1484375 C148.75988281 2.22320312 149.58617187 2.29796875 150.4375 2.375 C151.26121094 2.44460937 152.08492187 2.51421875 152.93359375 2.5859375 C153.95646484 2.79089844 153.95646484 2.79089844 155 3 C155.33 3.66 155.66 4.32 156 5 C156.99 5.2475 156.99 5.2475 158 5.5 C158.99 5.7475 158.99 5.7475 160 6 C160.33 6.66 160.66 7.32 161 8 C161.66 8.165 162.32 8.33 163 8.5 C163.66 8.665 164.32 8.83 165 9 C165.33 9.66 165.66 10.32 166 11 C166.99 11.66 167.98 12.32 169 13 C169.99 13.66 170.98 14.32 172 15 C172 15.99 172 16.98 172 18 C172.99 18 173.98 18 175 18 C175 18.99 175 19.98 175 21 C175.66 21.33 176.32 21.66 177 22 C177.625 24.5625 177.625 24.5625 178 27 C178.99 27 179.98 27 181 27 C181.33 29.97 181.66 32.94 182 36 C182.99 35.67 183.98 35.34 185 35 C185 39.62 185 44.24 185 49 C185.66 49 186.32 49 187 49 C187.33 48.34 187.66 47.68 188 47 C188 52.94 188 58.88 188 65 C187.01 64.67 186.02 64.34 185 64 C185 66.97 185 69.94 185 73 C112.4 73 39.8 73 -35 73 C-35 64 -35 64 -34 61 C-33.01 60.34 -32.02 59.68 -31 59 C-30.6278958 57.67696283 -30.29369827 56.34262065 -30 55 C-29.34 54.34 -28.68 53.68 -28 53 C-27.835 52.319375 -27.67 51.63875 -27.5 50.9375 C-27.335 50.298125 -27.17 49.65875 -27 49 C-26.01 48.505 -26.01 48.505 -25 48 C-24.835 47.175 -24.67 46.35 -24.5 45.5 C-24.335 44.675 -24.17 43.85 -24 43 C-23.01 42.505 -23.01 42.505 -22 42 C-21.27306096 40.02111039 -20.60183749 38.02045442 -20 36 C-19.34 36 -18.68 36 -18 36 C-18 34.02 -18 32.04 -18 30 C-17.01 30 -16.02 30 -15 30 C-15 28.02 -15 26.04 -15 24 C-14.01 24 -13.02 24 -12 24 C-12 22.02 -12 20.04 -12 18 C-11.01 18 -10.02 18 -9 18 C-9 16.02 -9 14.04 -9 12 C-8.01 12 -7.02 12 -6 12 C-5.67 10.68 -5.34 9.36 -5 8 C-4.67 8 -4.34 8 -4 8 C-3.67 6.02 -3.34 4.04 -3 2 C-2.34 2 -1.68 2 -1 2 C-0.67 1.34 -0.34 0.68 0 0 Z " fill="#FEFEFE" transform="translate(60,56)"/>
<path d="" fill="#EBE912" transform="translate(0,0)"/>
<path d="" fill="#FFFF00" transform="translate(0,0)"/>
<path d="" fill="#DADB1F" transform="translate(0,0)"/>
<path d="" fill="#DE203B" transform="translate(0,0)"/>
<path d="" fill="#FFFF00" transform="translate(0,0)"/>
<path d="" fill="#E8E615" transform="translate(0,0)"/>
<path d="" fill="#FFFA03" transform="translate(0,0)"/>
<path d="" fill="#FFFF00" transform="translate(0,0)"/>
<path d="" fill="#FFFF00" transform="translate(0,0)"/>
<path d="" fill="#F0EC0F" transform="translate(0,0)"/>
<path d="" fill="#F0EC0F" transform="translate(0,0)"/>
<path d="" fill="#C8CA2C" transform="translate(0,0)"/>
<path d="" fill="#C8CA2C" transform="translate(0,0)"/>
<path d="" fill="#4F5F8A" transform="translate(0,0)"/>
<path d="" fill="#FEF905" transform="translate(0,0)"/>
<path d="" fill="#FFFB03" transform="translate(0,0)"/>
<path d="" fill="#FFFD01" transform="translate(0,0)"/>
</svg>
